<svg width="185" height="36" viewBox="0 0 185 36" fill="none" xmlns="http://www.w3.org/2000/svg">
<g clip-path="url(#clip0_39_341)">
<path d="M126.855 0.232647C126.38 0.405426 125.732 0.858974 125.429 1.20453C125.127 1.57169 123.68 4.37936 122.211 7.4246C117.287 17.705 112.752 26.7975 111.326 29.2812C110.138 31.333 109.901 31.8945 109.901 32.7368C109.901 34.8966 111.218 36.0844 113.421 35.9333C115.603 35.8037 115.603 35.8037 122.276 22.3484C125.516 15.8476 128.194 10.513 128.259 10.513C128.324 10.513 130.894 15.5452 133.982 21.6573C137.07 27.791 139.921 33.32 140.31 33.9679C141.217 35.4149 142.124 35.998 143.507 35.998C145.429 35.998 146.617 34.7454 146.617 32.7152C146.617 31.9593 146.357 31.2898 145.299 29.4108C144.133 27.3159 138.626 16.4739 138.626 16.2796C138.626 16.2148 137.87 14.595 136.919 12.6512C135.991 10.7074 134.587 7.74856 133.809 6.08556C132.103 2.3924 131.347 1.07495 130.613 0.535011C129.879 -0.0265236 127.978 -0.177704 126.855 0.232647Z" fill="white"/>
<path d="M2.60465 0.4487C1.352 0.88065 0.466505 1.91733 0.207336 3.21318C0.0345559 4.01228 -0.0302364 8.9365 0.0129585 19.0873C0.0777509 33.5792 0.0777509 33.8168 0.531298 34.3999C1.22242 35.3502 1.99992 35.8253 3.01501 35.9333C4.31085 36.0629 5.71469 35.307 6.31942 34.1623C6.75137 33.32 6.77296 32.9529 6.83776 22.7589C6.88095 14.1631 6.94574 12.2409 7.18332 12.2409C7.35609 12.2409 7.61526 12.4353 7.76645 12.6513C7.93923 12.8888 9.23507 14.4655 10.6605 16.1717C12.0859 17.8563 13.5114 19.5625 13.7921 19.9296C15.4335 21.9814 25.7139 34.0328 26.2323 34.5079C27.4201 35.5662 27.8953 35.7821 29.1047 35.7821C29.9686 35.7821 30.5302 35.631 31.1781 35.2422C32.8627 34.2703 32.7979 34.9398 32.7979 18.1154C32.7979 8.61254 32.7115 2.9972 32.5819 2.47886C32.4307 1.98212 32.042 1.42059 31.5452 1.01023C29.9902 -0.264015 27.5929 0.29752 26.6426 2.19809C26.2323 3.0188 26.2107 3.55873 26.1459 13.256C26.1027 21.5062 26.0163 23.4716 25.8003 23.4716C25.5412 23.4716 22.9711 20.4695 12.5179 7.94302C6.16823 0.319115 5.10996 -0.479992 2.60465 0.4487Z" fill="white"/>
<path d="M106.143 0.362705C104.674 0.81625 104.285 1.48577 100.333 9.97358C94.7393 21.9818 92.6659 26.2797 92.4499 26.2797C92.3635 26.2797 92.1692 26.0205 92.0396 25.6749C91.91 25.351 90.3766 22.0466 88.6488 18.3534C86.921 14.6386 84.6748 9.736 83.6382 7.44667C80.8305 1.2482 80.1178 0.362705 77.9364 0.362705C76.2518 0.362705 74.8696 1.42098 74.5672 2.91121C74.416 3.68871 74.6968 4.40143 78.1524 11.5934C81.0897 17.7487 81.2192 18.0078 85.3875 26.9276C87.029 30.4264 88.6056 33.666 88.8863 34.1195C89.5559 35.1778 90.4846 35.7178 91.8668 35.8905C93.5082 36.1065 94.5665 35.7393 95.6463 34.5731C96.5318 33.6012 96.9638 32.7805 100.182 25.8477C102.709 20.3836 104.307 17.0575 107.46 10.6431C110.073 5.35172 110.549 4.25025 110.549 3.40795C110.549 2.30648 110.009 1.2266 109.188 0.708267C108.562 0.276318 106.963 0.103535 106.143 0.362705Z" fill="white"/>
<path d="M39.968 0.924007C38.4994 2.09027 38.5426 1.76631 38.521 12.781C38.521 21.7656 38.5642 22.8454 38.9098 24.1197C40.4 29.3895 44.1795 33.493 49.2333 35.264C51.1555 35.9551 54.9351 36.2143 56.9652 35.8039C62.7749 34.6592 67.8287 29.6702 69.2326 23.6877C69.5781 22.2623 69.6213 20.9017 69.6213 12.3491C69.6213 3.01896 69.5997 2.60861 69.1894 1.91749C67.9583 -0.155869 64.6539 -0.112671 63.574 2.00388C63.1637 2.80299 63.1421 3.40771 63.0125 12.3491C62.9477 17.986 62.7965 22.1111 62.667 22.4999C60.788 27.964 55.3022 30.6853 50.5076 28.5256C49.0822 27.8776 46.9656 25.8691 46.2313 24.4436C45.1514 22.2839 45.1082 21.8519 45.1082 12.0467C45.1082 3.71008 45.065 2.78139 44.7195 2.09027C43.8556 0.362473 41.4367 -0.220661 39.968 0.924007Z" fill="white"/>
<path d="M164.715 0.600071C160.374 1.2264 155.968 3.7749 153.096 7.33848C151.822 8.91509 150.245 11.9819 149.705 13.9689C149.446 14.984 149.338 16.215 149.316 18.3964C149.316 20.9881 149.381 21.6576 149.813 23.0398C151.735 29.1087 156.271 33.4714 162.491 35.156C164.089 35.6096 164.823 35.6528 172.296 35.7391C176.724 35.7823 180.806 35.7607 181.324 35.6744C184.045 35.264 185.06 31.7868 183.008 29.9726L182.231 29.3031H174.737C170.612 29.3031 166.508 29.1951 165.622 29.0871C163.247 28.7848 161.152 27.6833 159.251 25.7611C157.891 24.4005 156.271 21.9384 156.552 21.6792C156.616 21.6144 162.491 21.5064 169.618 21.42L182.576 21.2472L183.268 20.5345C184.52 19.1955 184.434 17.0789 183.095 15.7831L182.447 15.1568L169.596 15.092C154.845 15.0272 156.228 15.3079 157.523 12.7162C158.452 10.8589 160.202 9.19586 162.296 8.11599C163.636 7.44647 163.916 7.38168 166.789 7.23049C168.452 7.12251 172.512 7.07931 175.773 7.10091C182.361 7.1657 182.792 7.10091 183.548 5.86985C184.628 4.12046 184.088 1.83113 182.361 0.859241C181.518 0.384098 181.389 0.362499 173.722 0.384098C169.445 0.405693 165.385 0.492085 164.715 0.600071Z" fill="white"/>
<circle cx="128.259" cy="30.8147" r="5.18339" fill="#4E7AF7"/>
<circle cx="92.6228" cy="5.5457" r="5.18339" fill="#ED6861"/>
</g>
<defs>
<clipPath id="clip0_39_341">
<rect width="184.155" height="36" fill="white"/>
</clipPath>
</defs>
</svg>
